<svg width="48" height="48" viewBox="0 0 48 48" fill="none" xmlns="http://www.w3.org/2000/svg">
<circle cx="24" cy="24" r="24" fill="#F52929"/>
<path fill-rule="evenodd" clip-rule="evenodd" d="M33.968 16.6751C34.6173 17.4192 34.8465 19.1031 34.8465 19.1031C34.8465 19.1031 35.0757 21.1003 35.0757 23.0975V24.938C35.0757 26.8961 34.8465 28.8933 34.8465 28.8933C34.8465 28.8933 34.6174 30.5772 33.968 31.3213C33.1689 32.2151 32.2661 32.2943 31.8182 32.3336C31.7951 32.3356 31.7732 32.3375 31.7526 32.3395C28.6588 32.6136 23.9988 32.6136 23.9988 32.6136C23.9988 32.6136 18.2311 32.5744 16.4741 32.3787C16.3808 32.3566 16.2658 32.34 16.1351 32.3212C15.5705 32.2399 14.7119 32.1163 14.0296 31.3213C13.3803 30.5773 13.1511 28.8934 13.1511 28.8934C13.1511 28.8934 12.9219 26.9353 12.9219 24.9381V23.0975C12.9219 21.1003 13.1511 19.1031 13.1511 19.1031C13.1511 19.1031 13.342 17.4192 14.0296 16.6751C14.8287 15.7813 15.7315 15.7021 16.1794 15.6628C16.2025 15.6608 16.2244 15.6588 16.245 15.6569C19.3388 15.422 23.9988 15.3828 23.9988 15.3828C23.9988 15.3828 28.6588 15.422 31.7526 15.6569C31.7845 15.6599 31.8195 15.6626 31.8573 15.6656C32.3171 15.7017 33.1915 15.7704 33.968 16.6751ZM21.3251 28.5409V20.0429L28.5824 24.3898L21.3251 28.5409Z" fill="white"/>
</svg>
