<svg width="48" height="48" viewBox="0 0 48 48" fill="none" xmlns="http://www.w3.org/2000/svg">
<circle cx="24" cy="24" r="24" fill="#2AA3EF"/>
<path fill-rule="evenodd" clip-rule="evenodd" d="M33.8461 17.8938C33.122 18.215 32.3424 18.4322 31.5256 18.5305C32.3598 18.0299 33.0004 17.2389 33.3016 16.296C32.5208 16.7589 31.6565 17.0949 30.7355 17.2755C29.9987 16.4903 28.9491 16 27.7871 16C25.5558 16 23.7462 17.8081 23.7462 20.0391C23.7462 20.3569 23.7833 20.6643 23.8517 20.9604C20.4943 20.7923 17.5181 19.1831 15.5255 16.7395C15.1768 17.3361 14.9787 18.0299 14.9787 18.7705C14.9787 20.1717 15.6923 21.4084 16.7755 22.1319C16.1128 22.1113 15.4896 21.9296 14.9462 21.6267C14.9462 21.6438 14.9462 21.661 14.9462 21.6781C14.9462 23.6348 16.3376 25.2669 18.1866 25.6384C17.8471 25.731 17.4915 25.7801 17.1219 25.7801C16.8624 25.7801 16.6087 25.755 16.3619 25.707C16.8763 27.3117 18.3685 28.4797 20.1363 28.5129C18.7531 29.5953 17.0107 30.241 15.1177 30.241C14.7921 30.241 14.4701 30.2227 14.1538 30.185C15.9414 31.3314 18.0649 32 20.3472 32C27.7779 32 31.8419 25.8453 31.8419 20.5078C31.8419 20.3317 31.8373 20.1592 31.8303 19.9854C32.6193 19.4162 33.3051 18.7042 33.8461 17.895V17.8938V17.8938Z" fill="white"/>
</svg>