<svg width="187" height="56" viewBox="0 0 187 56" fill="none" xmlns="http://www.w3.org/2000/svg">
<g clip-path="url(#clip0_8_1547)">
<path d="M172.108 5.99297e-05H14.8999C14.3269 5.99297e-05 13.7607 5.99298e-05 13.1892 0.00285993C12.7108 0.00565993 12.2361 0.0137939 11.7531 0.0206399C10.7038 0.0317025 9.65692 0.114407 8.62162 0.268034C7.58777 0.425006 6.5863 0.720942 5.6511 1.14583C4.71703 1.57432 3.86355 2.13109 3.12162 2.79596C2.37579 3.45895 1.75408 4.22528 1.2804 5.06548C0.80542 5.90401 0.476064 6.80257 0.303712 7.73013C0.129722 8.65652 0.036096 9.59359 0.023675 10.5329C0.0091731 10.9622 0.00764164 11.3928 0 11.8221V44.1821C0.00764164 44.6168 0.0091731 45.0379 0.023675 45.4728C0.0360998 46.4121 0.129726 47.3491 0.303712 48.2754C0.475588 49.2035 0.804964 50.1026 1.2804 50.9414C1.75387 51.7789 2.37566 52.5422 3.12162 53.2015C3.86074 53.8693 4.71477 54.4264 5.6511 54.8516C6.5863 55.2777 7.58765 55.5754 8.62162 55.7348C9.6571 55.8872 10.7039 55.9699 11.7531 55.9823C12.2361 55.9918 12.7108 55.9973 13.1892 55.9973C13.7607 56.0001 14.3269 56.0001 14.8999 56.0001H172.108C172.67 56.0001 173.241 56.0001 173.802 55.9973C174.279 55.9973 174.767 55.9918 175.243 55.9823C176.29 55.9706 177.335 55.8878 178.369 55.7348C179.406 55.5742 180.411 55.2766 181.35 54.8516C182.286 54.4262 183.139 53.8691 183.878 53.2015C184.622 52.5396 185.245 51.7769 185.724 50.9414C186.196 50.102 186.522 49.203 186.692 48.2754C186.866 47.349 186.963 46.4121 186.982 45.4728C186.988 45.0379 186.988 44.6168 186.988 44.1821C187 43.6735 187 43.1677 187 42.6508V13.3506C187 12.8379 187 12.3294 186.988 11.8221C186.988 11.3928 186.988 10.9622 186.982 10.5329C186.963 9.59345 186.866 8.65659 186.692 7.73008C186.522 6.80305 186.196 5.90456 185.724 5.06543C184.76 3.38133 183.23 2.0105 181.35 1.14571C180.411 0.721854 179.406 0.425997 178.369 0.267908C177.335 0.113604 176.29 0.0308708 175.243 0.0204439C174.767 0.0136119 174.279 0.00540793 173.802 0.00267793C173.241 -0.00012207 172.67 -0.00012207 172.108 -0.00012207V5.99297e-05Z" fill="#A6A6A6"/>
<path d="M13.1968 54.775C12.7207 54.775 12.2561 54.7695 11.7837 54.76C10.8051 54.7486 9.82875 54.6722 8.86274 54.5317C7.96198 54.3927 7.08939 54.1341 6.27374 53.7646C5.46557 53.3981 4.72846 52.9176 4.09064 52.3414C3.44358 51.7719 2.90488 51.1115 2.49588 50.3863C2.08237 49.6563 1.79619 48.8738 1.64733 48.0662C1.48656 47.1983 1.39958 46.3208 1.38714 45.4412C1.37723 45.1459 1.36426 44.1628 1.36426 44.1628V11.8221C1.36426 11.8221 1.37807 10.8541 1.38721 10.5697C1.39913 9.69145 1.48561 8.81529 1.64589 7.9488C1.79503 7.13893 2.08143 6.35422 2.49516 5.62186C2.90266 4.8971 3.43837 4.23618 4.08153 3.66473C4.72396 3.08785 5.46343 2.60482 6.27297 2.23327C7.08675 1.86491 7.95769 1.6082 8.85663 1.47175C9.82582 1.32975 10.8055 1.25297 11.7875 1.24207L13.1976 1.22498H173.795L175.222 1.24276C176.195 1.25311 177.166 1.32921 178.126 1.47038C179.034 1.60854 179.914 1.86704 180.737 2.23737C182.359 2.98616 183.678 4.1708 184.511 5.62527C184.918 6.35258 185.2 7.13088 185.347 7.93376C185.509 8.80736 185.6 9.69041 185.619 10.5759C185.623 10.9723 185.623 11.3982 185.623 11.8221C185.636 12.3471 185.636 12.8468 185.636 13.3506V42.6507C185.636 43.1593 185.636 43.6556 185.623 44.156C185.623 44.6113 185.623 45.0283 185.617 45.4576C185.599 46.3272 185.51 47.1945 185.35 48.0525C185.204 48.8659 184.92 49.6545 184.506 50.3905C184.094 51.1078 183.559 51.7625 182.919 52.3304C182.281 52.9097 181.542 53.3931 180.732 53.7619C179.912 54.1343 179.033 54.3938 178.126 54.5317C177.16 54.673 176.184 54.7493 175.205 54.76C174.747 54.7695 174.268 54.775 173.802 54.775L172.108 54.7778L13.1968 54.775Z" fill="black"/>
</g>
<path d="M38.8981 28.2126C38.9132 27.0441 39.2263 25.8984 39.8082 24.882C40.3901 23.8657 41.2219 23.0118 42.2262 22.3997C41.5882 21.4965 40.7466 20.7532 39.7681 20.2288C38.7896 19.7045 37.7013 19.4135 36.5895 19.379C34.218 19.1322 31.9188 20.7858 30.7103 20.7858C29.4784 20.7858 27.6177 19.4035 25.6141 19.4444C24.3181 19.4859 23.055 19.8595 21.9479 20.5287C20.8409 21.198 19.9276 22.1402 19.297 23.2634C16.5657 27.9512 18.603 34.8406 21.2194 38.6299C22.5285 40.4854 24.0584 42.558 26.0602 42.4845C28.0192 42.404 28.7508 41.2462 31.1154 41.2462C33.458 41.2462 34.1444 42.4845 36.1869 42.4378C38.2889 42.4039 39.6133 40.574 40.8764 38.701C41.817 37.3789 42.5407 35.9177 43.0209 34.3715C41.7996 33.8594 40.7575 33.0024 40.0243 31.9072C39.2912 30.812 38.8995 29.527 38.8981 28.2126Z" fill="white"/>
<path d="M35.0402 16.8869C36.1863 15.523 36.751 13.7699 36.6142 12C34.8632 12.1823 33.2458 13.0119 32.0842 14.3235C31.5163 14.9642 31.0813 15.7096 30.8041 16.5171C30.527 17.3246 30.4131 18.1783 30.469 19.0294C31.3448 19.0383 32.2112 18.8502 33.003 18.479C33.7949 18.1079 34.4914 17.5635 35.0402 16.8869Z" fill="white"/>
<path d="M67.1218 37.1837H60.4368L58.8315 41.8828H56L62.3318 24.4976H65.2736L71.6055 41.8828H68.7257L67.1218 37.1837ZM61.1292 35.0154H66.4281L63.8159 27.3892H63.7428L61.1292 35.0154Z" fill="white"/>
<path d="M85.2801 35.5458C85.2801 39.4846 83.1534 42.0153 79.9441 42.0153C79.1311 42.0574 78.3225 41.8718 77.611 41.4796C76.8995 41.0874 76.3138 40.5045 75.921 39.7977H75.8602V46.0758H73.2357V29.2075H75.7762V31.3157H75.8244C76.2353 30.6122 76.8309 30.0324 77.5479 29.6378C78.2648 29.2432 79.0762 29.0486 79.8958 29.0748C83.141 29.0749 85.2801 31.6178 85.2801 35.5458ZM82.5824 35.5458C82.5824 32.9796 81.2446 31.2924 79.2034 31.2924C77.1981 31.2924 75.8492 33.0151 75.8492 35.5458C75.8492 38.0997 77.1981 39.81 79.2034 39.81C81.2446 39.81 82.5824 38.1352 82.5824 35.5458Z" fill="white"/>
<path d="M99.3533 35.5459C99.3533 39.4847 97.2266 42.0154 94.0172 42.0154C93.2043 42.0576 92.3957 41.8719 91.6842 41.4797C90.9727 41.0875 90.387 40.5046 89.9942 39.7978H89.9334V46.0759H87.3088V29.2076H89.8493V31.3158H89.8976C90.3085 30.6123 90.9041 30.0325 91.621 29.6379C92.3379 29.2433 93.1493 29.0488 93.9689 29.075C97.2142 29.075 99.3533 31.6179 99.3533 35.5459ZM96.6556 35.5459C96.6556 32.9797 95.3178 31.2925 93.2766 31.2925C91.2713 31.2925 89.9224 33.0152 89.9224 35.5459C89.9224 38.0998 91.2713 39.8101 93.2766 39.8101C95.3178 39.8101 96.6556 38.1353 96.6556 35.5459H96.6556Z" fill="white"/>
<path d="M108.655 37.0388C108.849 38.7628 110.539 39.8948 112.847 39.8948C115.06 39.8948 116.651 38.7627 116.651 37.2082C116.651 35.8588 115.691 35.0508 113.418 34.4971L111.145 33.9543C107.925 33.1832 106.43 31.6903 106.43 29.2676C106.43 26.268 109.067 24.2076 112.811 24.2076C116.517 24.2076 119.058 26.268 119.143 29.2676H116.494C116.335 27.5326 114.888 26.4854 112.774 26.4854C110.66 26.4854 109.213 27.545 109.213 29.0871C109.213 30.3162 110.137 31.0395 112.398 31.5931L114.33 32.0635C117.928 32.907 119.423 34.3399 119.423 36.8828C119.423 40.1353 116.81 42.1724 112.653 42.1724C108.764 42.1724 106.138 40.1832 105.968 37.0386L108.655 37.0388Z" fill="white"/>
<path d="M125.088 26.2079V29.2075H127.519V31.2678H125.088V38.2555C125.088 39.3411 125.574 39.847 126.643 39.847C126.932 39.842 127.22 39.8219 127.507 39.7867V41.8348C127.026 41.9238 126.538 41.9641 126.049 41.9551C123.46 41.9551 122.451 40.9912 122.451 38.533V31.2678H120.591V29.2075H122.451V26.2079H125.088Z" fill="white"/>
<path d="M128.927 35.5458C128.927 31.5577 131.297 29.0516 134.992 29.0516C138.699 29.0516 141.057 31.5576 141.057 35.5458C141.057 39.5448 138.711 42.0399 134.992 42.0399C131.273 42.0399 128.927 39.5448 128.927 35.5458ZM138.383 35.5458C138.383 32.81 137.118 31.1954 134.992 31.1954C132.865 31.1954 131.602 32.8223 131.602 35.5458C131.602 38.2924 132.865 39.8948 134.992 39.8948C137.118 39.8948 138.383 38.2924 138.383 35.5458H138.383Z" fill="white"/>
<path d="M143.221 29.2075H145.724V31.3649H145.785C145.954 30.6911 146.353 30.0956 146.913 29.6786C147.473 29.2615 148.161 29.0483 148.861 29.0748C149.163 29.0738 149.465 29.1064 149.76 29.1719V31.6055C149.378 31.4898 148.98 31.4367 148.581 31.4483C148.199 31.4329 147.819 31.4996 147.466 31.6436C147.114 31.7877 146.796 32.0057 146.536 32.2827C146.277 32.5598 146.08 32.8893 145.961 33.2486C145.842 33.608 145.803 33.9886 145.846 34.3645V41.8827H143.221L143.221 29.2075Z" fill="white"/>
<path d="M161.861 38.1598C161.508 40.4608 159.247 42.0399 156.355 42.0399C152.635 42.0399 150.327 39.5694 150.327 35.6059C150.327 31.6302 152.648 29.0516 156.245 29.0516C159.782 29.0516 162.007 31.4606 162.007 35.3038V36.1952H152.976V36.3524C152.934 36.8189 152.993 37.2888 153.149 37.731C153.305 38.1732 153.553 38.5775 153.879 38.917C154.204 39.2566 154.598 39.5237 155.036 39.7005C155.473 39.8773 155.944 39.9599 156.416 39.9426C157.036 40.0002 157.658 39.8579 158.19 39.5366C158.722 39.2154 159.136 38.7325 159.369 38.1598L161.861 38.1598ZM152.988 34.3768H159.381C159.405 33.9574 159.34 33.5377 159.193 33.144C159.045 32.7503 158.816 32.3911 158.522 32.089C158.227 31.787 157.873 31.5485 157.481 31.3886C157.089 31.2287 156.668 31.1508 156.245 31.1598C155.817 31.1573 155.394 31.2387 154.998 31.3994C154.603 31.56 154.243 31.7967 153.94 32.0958C153.638 32.3949 153.398 32.7504 153.234 33.1419C153.071 33.5334 152.987 33.9532 152.988 34.3768V34.3768Z" fill="white"/>
<path d="M60.8003 11.4116C61.3505 11.3724 61.9027 11.4548 62.4169 11.6528C62.9311 11.8509 63.3946 12.1595 63.7739 12.5566C64.1533 12.9537 64.4389 13.4293 64.6104 13.949C64.7819 14.4688 64.8348 15.0198 64.7654 15.5624C64.7654 18.2311 63.3104 19.7652 60.8003 19.7652H57.7564V11.4116H60.8003ZM59.0652 18.5838H60.6541C61.0473 18.6071 61.4407 18.5432 61.8059 18.3967C62.171 18.2503 62.4986 18.0249 62.7648 17.7371C63.031 17.4493 63.2291 17.1063 63.3447 16.7331C63.4603 16.3598 63.4905 15.9657 63.4331 15.5794C63.4864 15.1946 63.4531 14.8029 63.3357 14.4324C63.2183 14.0619 63.0197 13.7217 62.7541 13.4362C62.4885 13.1507 62.1625 12.9269 61.7995 12.781C61.4364 12.6351 61.0452 12.5706 60.6541 12.5921H59.0652V18.5838Z" fill="white"/>
<path d="M66.2439 16.6103C66.2039 16.196 66.2518 15.778 66.3843 15.3831C66.5168 14.9882 66.7311 14.6251 67.0135 14.3172C67.2959 14.0092 67.6401 13.7631 68.024 13.5947C68.4079 13.4263 68.8231 13.3394 69.243 13.3394C69.6628 13.3394 70.078 13.4263 70.4619 13.5947C70.8459 13.7631 71.19 14.0092 71.4724 14.3172C71.7548 14.6251 71.9691 14.9882 72.1017 15.3831C72.2342 15.778 72.282 16.196 72.242 16.6103C72.2827 17.025 72.2355 17.4436 72.1033 17.8391C71.9712 18.2346 71.757 18.5984 71.4745 18.907C71.1921 19.2155 70.8476 19.4621 70.4633 19.6309C70.079 19.7996 69.6633 19.8868 69.243 19.8868C68.8226 19.8868 68.407 19.7996 68.0226 19.6309C67.6383 19.4621 67.2939 19.2155 67.0114 18.907C66.729 18.5984 66.5148 18.2346 66.3826 17.8391C66.2504 17.4436 66.2032 17.025 66.2439 16.6103ZM70.9511 16.6103C70.9511 15.2438 70.3318 14.4447 69.245 14.4447C68.1541 14.4447 67.5404 15.2438 67.5404 16.6103C67.5404 17.9877 68.1541 18.7807 69.245 18.7807C70.3318 18.7807 70.9511 17.9823 70.9511 16.6103H70.9511Z" fill="white"/>
<path d="M80.2151 19.765H78.9131L77.5988 15.1221H77.4995L76.1906 19.765H74.9011L73.1481 13.4609H74.4211L75.5603 18.2713H75.6541L76.9616 13.4609H78.1656L79.4731 18.2713H79.5724L80.7061 13.4609H81.9611L80.2151 19.765Z" fill="white"/>
<path d="M83.4355 13.4609H84.6437V14.4624H84.7374C84.8965 14.1027 85.1649 13.8012 85.5051 13.5998C85.8452 13.3985 86.2403 13.3074 86.6352 13.3392C86.9446 13.3162 87.2553 13.3624 87.5443 13.4745C87.8332 13.5867 88.093 13.7618 88.3044 13.987C88.5158 14.2122 88.6734 14.4816 88.7655 14.7754C88.8576 15.0691 88.8818 15.3796 88.8364 15.6839V19.7649H87.5813V15.9964C87.5813 14.9833 87.1372 14.4795 86.209 14.4795C85.9989 14.4698 85.7892 14.5052 85.5942 14.5834C85.3993 14.6615 85.2237 14.7806 85.0794 14.9323C84.9352 15.084 84.8258 15.2649 84.7586 15.4625C84.6915 15.6601 84.6683 15.8697 84.6905 16.077V19.765H83.4355L83.4355 13.4609Z" fill="white"/>
<path d="M90.8362 11H92.0912V19.765H90.8362V11Z" fill="white"/>
<path d="M93.8359 16.6103C93.796 16.196 93.8438 15.7779 93.9764 15.383C94.1089 14.9881 94.3233 14.625 94.6057 14.3171C94.8881 14.0091 95.2323 13.763 95.6163 13.5946C96.0002 13.4262 96.4155 13.3392 96.8353 13.3392C97.2552 13.3392 97.6704 13.4262 98.0543 13.5946C98.4383 13.763 98.7825 14.0091 99.0649 14.3171C99.3473 14.625 99.5617 14.9881 99.6942 15.383C99.8268 15.7779 99.8746 16.196 99.8347 16.6103C99.8754 17.025 99.8281 17.4436 99.6959 17.8391C99.5637 18.2347 99.3494 18.5984 99.067 18.907C98.7845 19.2155 98.44 19.4621 98.0557 19.6309C97.6713 19.7996 97.2557 19.8868 96.8353 19.8868C96.415 19.8868 95.9993 19.7996 95.6149 19.6309C95.2306 19.4621 94.8861 19.2155 94.6037 18.907C94.3212 18.5984 94.107 18.2347 93.9747 17.8391C93.8425 17.4436 93.7952 17.025 93.8359 16.6103ZM98.5431 16.6103C98.5431 15.2438 97.9238 14.4447 96.837 14.4447C95.7461 14.4447 95.1324 15.2438 95.1324 16.6103C95.1324 17.9877 95.7461 18.7807 96.837 18.7807C97.9238 18.7807 98.5431 17.9823 98.5431 16.6103H98.5431Z" fill="white"/>
<path d="M101.156 17.9822C101.156 16.8474 102.008 16.1932 103.521 16.1003L105.244 16.0018V15.4577C105.244 14.7919 104.8 14.4159 103.942 14.4159C103.241 14.4159 102.756 14.6709 102.617 15.1166H101.401C101.53 14.0338 102.557 13.3392 104 13.3392C105.594 13.3392 106.493 14.126 106.493 15.4577V19.765H105.285V18.8791H105.186C104.984 19.1969 104.701 19.4559 104.366 19.6298C104.03 19.8037 103.654 19.8862 103.276 19.8689C103.009 19.8964 102.739 19.8682 102.484 19.786C102.228 19.7038 101.993 19.5695 101.794 19.3918C101.594 19.214 101.434 18.9967 101.324 18.7539C101.214 18.5112 101.157 18.2483 101.156 17.9822ZM105.244 17.4435V16.9165L103.691 17.0149C102.815 17.073 102.418 17.3683 102.418 17.9241C102.418 18.4915 102.914 18.8216 103.597 18.8216C103.797 18.8417 103.999 18.8217 104.191 18.7628C104.383 18.7038 104.562 18.6072 104.715 18.4786C104.869 18.35 104.995 18.1921 105.086 18.0143C105.176 17.8365 105.23 17.6424 105.244 17.4435Z" fill="white"/>
<path d="M108.143 16.6103C108.143 14.6183 109.176 13.3564 110.783 13.3564C111.18 13.3382 111.575 13.4326 111.92 13.6284C112.265 13.8243 112.547 14.1135 112.733 14.4624H112.827V11H114.082V19.765H112.879V18.769H112.78C112.58 19.1155 112.288 19.4012 111.936 19.595C111.584 19.7889 111.185 19.8836 110.783 19.8689C109.165 19.869 108.143 18.6071 108.143 16.6103ZM109.439 16.6103C109.439 17.9474 110.075 18.752 111.139 18.752C112.196 18.752 112.85 17.9358 112.85 16.6157C112.85 15.3019 112.189 14.474 111.139 14.474C110.082 14.474 109.439 15.2841 109.439 16.6103H109.439Z" fill="white"/>
<path d="M119.274 16.6103C119.234 16.196 119.282 15.778 119.415 15.3831C119.547 14.9882 119.762 14.6251 120.044 14.3172C120.326 14.0092 120.67 13.7631 121.054 13.5947C121.438 13.4263 121.854 13.3394 122.273 13.3394C122.693 13.3394 123.108 13.4263 123.492 13.5947C123.876 13.7631 124.22 14.0092 124.503 14.3172C124.785 14.6251 125 14.9882 125.132 15.3831C125.265 15.778 125.312 16.196 125.272 16.6103C125.313 17.025 125.266 17.4436 125.134 17.8391C125.002 18.2346 124.787 18.5984 124.505 18.907C124.222 19.2155 123.878 19.4621 123.494 19.6309C123.109 19.7996 122.694 19.8868 122.273 19.8868C121.853 19.8868 121.437 19.7996 121.053 19.6309C120.669 19.4621 120.324 19.2155 120.042 18.907C119.759 18.5984 119.545 18.2346 119.413 17.8391C119.281 17.4436 119.234 17.025 119.274 16.6103ZM123.981 16.6103C123.981 15.2438 123.362 14.4447 122.275 14.4447C121.184 14.4447 120.571 15.2438 120.571 16.6103C120.571 17.9877 121.185 18.7807 122.275 18.7807C123.362 18.7807 123.981 17.9823 123.981 16.6103Z" fill="white"/>
<path d="M126.956 13.4609H128.165V14.4624H128.258C128.417 14.1027 128.686 13.8012 129.026 13.5998C129.366 13.3985 129.761 13.3074 130.156 13.3392C130.466 13.3162 130.776 13.3624 131.065 13.4745C131.354 13.5867 131.614 13.7618 131.825 13.987C132.037 14.2122 132.194 14.4816 132.286 14.7754C132.379 15.0691 132.403 15.3796 132.357 15.6839V19.7649H131.102V15.9964C131.102 14.9833 130.658 14.4795 129.73 14.4795C129.52 14.4698 129.31 14.5052 129.115 14.5834C128.92 14.6615 128.745 14.7806 128.6 14.9323C128.456 15.084 128.347 15.2649 128.28 15.4625C128.212 15.6601 128.189 15.8697 128.211 16.077V19.765H126.956V13.4609Z" fill="white"/>
<path d="M139.449 11.8915V13.4897H140.827V14.5377H139.449V17.7793C139.449 18.4396 139.724 18.7288 140.348 18.7288C140.508 18.7283 140.668 18.7187 140.827 18.7001V19.7364C140.601 19.7764 140.373 19.7976 140.144 19.8C138.748 19.8 138.193 19.3132 138.193 18.0978V14.5376H137.183V13.4897H138.193V11.8915H139.449Z" fill="white"/>
<path d="M142.541 11H143.785V14.474H143.885C144.051 14.111 144.327 13.8078 144.674 13.6057C145.021 13.4036 145.422 13.3125 145.824 13.3447C146.131 13.3281 146.439 13.3791 146.725 13.4939C147.01 13.6088 147.267 13.7847 147.476 14.0092C147.685 14.2337 147.842 14.5012 147.935 14.7925C148.028 15.0839 148.055 15.3921 148.014 15.6949V19.765H146.757V16.0018C146.757 14.9949 146.284 14.4849 145.398 14.4849C145.182 14.4674 144.965 14.4968 144.762 14.5711C144.559 14.6454 144.375 14.7627 144.222 14.915C144.069 15.0672 143.952 15.2506 143.879 15.4524C143.805 15.6542 143.777 15.8695 143.796 16.0832V19.765H142.541L142.541 11Z" fill="white"/>
<path d="M155.332 18.0628C155.161 18.639 154.792 19.1374 154.288 19.4708C153.784 19.8042 153.178 19.9514 152.576 19.8867C152.157 19.8976 151.741 19.8181 151.356 19.6535C150.971 19.489 150.627 19.2434 150.348 18.9338C150.068 18.6242 149.86 18.258 149.737 17.8607C149.615 17.4633 149.581 17.0443 149.639 16.6328C149.583 16.2199 149.617 15.8 149.739 15.4015C149.861 15.0029 150.068 14.6351 150.346 14.3228C150.625 14.0105 150.967 13.761 151.351 13.5913C151.734 13.4216 152.15 13.3357 152.571 13.3392C154.34 13.3392 155.408 14.5376 155.408 16.5172V16.9513H150.917V17.0211C150.897 17.2524 150.927 17.4853 151.003 17.7047C151.08 17.9242 151.201 18.1254 151.361 18.2954C151.52 18.4654 151.714 18.6006 151.929 18.6921C152.144 18.7837 152.376 18.8296 152.611 18.8271C152.911 18.8628 153.215 18.8092 153.484 18.6731C153.754 18.537 153.976 18.3246 154.124 18.0628L155.332 18.0628ZM150.917 16.0312H154.129C154.145 15.8196 154.116 15.6071 154.044 15.4073C153.972 15.2075 153.859 15.0248 153.711 14.871C153.564 14.7172 153.386 14.5957 153.188 14.5143C152.99 14.4328 152.778 14.3932 152.564 14.3981C152.347 14.3954 152.131 14.4358 151.93 14.5169C151.729 14.598 151.546 14.7183 151.393 14.8705C151.24 15.0226 151.118 15.2038 151.037 15.4031C150.955 15.6025 150.914 15.816 150.917 16.0312H150.917Z" fill="white"/>
<defs>
<clipPath id="clip0_8_1547">
<rect width="187" height="56" fill="white"/>
</clipPath>
</defs>
</svg>
