<svg width="48" height="48" viewBox="0 0 48 48" fill="none" xmlns="http://www.w3.org/2000/svg">
<circle cx="24" cy="24" r="24" fill="url(#paint0_linear_13690_157448)"/>
<path fill-rule="evenodd" clip-rule="evenodd" d="M28.229 13.5391H19.7722C16.3352 13.5391 13.5391 16.3352 13.5391 19.7722V28.229C13.5391 31.666 16.3352 34.4621 19.7722 34.4621H28.229C31.666 34.4621 34.4621 31.666 34.4621 28.229V19.7722C34.4621 16.3352 31.6659 13.5391 28.229 13.5391ZM32.3573 28.229C32.3573 30.509 30.509 32.3573 28.229 32.3573H19.7722C17.4922 32.3573 15.6439 30.509 15.6439 28.229V19.7722C15.6439 17.4922 17.4922 15.6439 19.7722 15.6439H28.229C30.509 15.6439 32.3573 17.4922 32.3573 19.7722V28.229ZM18.5891 24.0006C18.5891 21.0167 21.0167 18.5891 24.0006 18.5891C26.9845 18.5891 29.4121 21.0167 29.4121 24.0006C29.4121 26.9844 26.9845 29.412 24.0006 29.412C21.0167 29.412 18.5891 26.9844 18.5891 24.0006ZM24.0006 27.3072C22.1744 27.3072 20.694 25.8268 20.694 24.0006C20.694 22.1744 22.1744 20.694 24.0006 20.694C25.8268 20.694 27.3072 22.1744 27.3072 24.0006C27.3072 25.8268 25.8268 27.3072 24.0006 27.3072ZM29.4225 19.9265C30.1387 19.9265 30.7192 19.3459 30.7192 18.6298C30.7192 17.9136 30.1387 17.3331 29.4225 17.3331C28.7064 17.3331 28.1258 17.9136 28.1258 18.6298C28.1258 19.3459 28.7064 19.9265 29.4225 19.9265Z" fill="white"/>
<defs>
<linearGradient id="paint0_linear_13690_157448" x1="0.16037" y1="-0.0801845" x2="7.49405e-07" y2="47.9198" gradientUnits="userSpaceOnUse">
<stop stop-color="#7024C4"/>
<stop offset="0.415461" stop-color="#C21975"/>
<stop offset="0.702206" stop-color="#C74C4D"/>
<stop offset="1" stop-color="#E09B3D"/>
</linearGradient>
</defs>
</svg>
