<svg width="48" height="48" viewBox="0 0 48 48" fill="none" xmlns="http://www.w3.org/2000/svg">
<circle cx="24" cy="24" r="24" fill="#007AB7"/>
<path fill-rule="evenodd" clip-rule="evenodd" d="M19.2355 20.4909H15.6618V32.0003H19.2355V20.4909ZM19.5278 16.8452C19.5278 15.7009 18.5978 14.7695 17.4553 14.7695C16.3061 14.7695 15.3828 15.7009 15.3828 16.8452C15.3828 17.9895 16.3061 18.9209 17.4553 18.9209C18.5978 18.9209 19.5278 17.9895 19.5278 16.8452ZM24.9016 20.4909H21.4873V32.0003H25.0544V26.3055C25.0544 24.8086 25.3333 23.3517 27.1933 23.3517C29.0266 23.3517 29.0465 25.0681 29.0465 26.4053V32.0003H32.6136V25.6934C32.6136 22.5932 31.9427 20.2115 28.3291 20.2115C26.5888 20.2115 25.4263 21.1629 24.9481 22.0677H24.9016V20.4909Z" fill="white"/>
</svg>
